# WaveFront *.obj file (generated by CINEMA 4D)

mtllib ./CT_Moth_Enclosure_V5.mtl

v 5.510422706604 0 0
v -5.510422706604 -0 -0
v 3.89645743370056 0 -3.30572414398193
v 0 0 -4.67500019073486
v -3.89645743370056 0 -3.30572414398193
v 3.89645743370056 -0 3.30572414398193
v -0 -0 4.67500019073486
v -3.89645743370056 -0 3.30572414398193
v 3.89645743370056 5.06724500656128 1.65286207199097
v -0 7.16616678237915 2.33750009536743
v -3.89645743370056 5.06724500656128 1.65286207199097
v 3.89645743370056 5.06724500656128 -1.65286207199097
v -0 7.16616678237915 -2.33750009536743
v -3.89645743370056 5.06724500656128 -1.65286207199097
v 4.70344018936157 2.53362250328064 -0.82643103599548
v -4.70344018936157 2.53362250328064 -0.82643103599548
# 16 vertices

vn -0.31687495112419 0.29412472248077 -0.9017099738121
vn -0.43519142270088 0.11944414675236 -0.89237970113754
vn -0.39714506268501 0.17944779992104 -0.90004128217697
vn 0 0 0
vn -0.53409868478775 -0.06056356057525 -0.84325003623962
vn 0.88955366611481 0.14166559278965 -0.43430998921394
vn 0.31687495112419 0.2941247522831 -0.9017099738121
vn 0.31687492132187 0.2941247522831 -0.9017099738121
vn 0.78603160381317 0.26253309845924 0.55967020988464
vn 0.88955366611481 0.14166562259197 0.43430989980698
vn 0.31687495112419 0.29412472248077 0.9017099738121
vn -0.31687495112419 0.2941247522831 0.9017099738121
vn -0.31687498092651 0.29412478208542 0.9017099738121
vn -0.88955366611481 0.14166563749313 0.43430989980698
vn -0.947474360466 0.22892600297928 0.22334994375706
vn 0.65025007724762 0.37262603640556 0.66206097602844
vn 0.47424507141113 0.88039284944534 0
vn 0.47424510121346 0.88039284944534 0
vn -0.47424507141113 0.88039290904999 -0
vn -0.47424507141113 0.88039290904999 0
vn 0 -1 -0
vn 0 -1 -0
vn 0 -1 -0
vn -0 -1 -0
vn 0 -1 -0
vn -0 -1 -0
vn 0 -1 -0
vn -0 -1 -0
vn -0 -1 -0
vn 0 -1 -0
vn -0.31687495112419 0.2941247522831 -0.9017099738121
vn 0.31687501072884 0.2941247522831 -0.9017099738121
vn 0.31687498092651 0.2941247522831 0.9017099738121
vn -0.31687495112419 0.29412472248077 0.9017099738121
vn 0.47424507141113 0.88039284944534 0
vn -0.47424510121346 0.88039284944534 -0
vn -0.95283555984497 0.30348712205887 0.00000004068561
# 37 normals

vt 0.5 0.5 0
vt 0.5 0.75 0
vt 0.66666668653488 0.75 0
vt 0.66666668653488 0.5 0
vt 0.54166662693024 0.875 0
vt 0.58333331346512 1 0
vt 0.54166662693024 0.125 0
vt 0.5 0.25 0
vt 0.66666668653488 0.25 0
vt 0.58333331346512 0 0
vt 0.25 0 0
vt 0.16666667163372 0.25 0
vt 0.33333334326744 0.25 0
vt 0.16666667163372 0.5 0
vt 0.33333334326744 0.5 0
vt 0.16666667163372 0.75 0
vt 0.33333334326744 0.75 0
vt 0.25 1 0
vt 0.41666665673256 0 0
vt 0.45833331346512 0.125 0
vt 0 0.5 0
vt 0.5 0 0
vt 0.85355341434479 0.14644658565521 0
vt 1 0.5 0
vt 0.85355341434479 0.85355341434479 0
vt 0.5 1 0
vt 0.14644661545753 0.85355341434479 0
vt 0.14644661545753 0.14644658565521 0
vt 0 1 0
vt 1 1 0
vt 1 0 0
vt 0 0 0
# 32 texture coordinates

o BODY
usemtl default
f 5/3/3 14/2/2 13/1/1
f 5/3/3 2/6/5 16/5/5 14/2/2
f 13/1/4 4/4/4 4/4/4
f 1/10/6 3/9/6 12/8/6 15/7/6
f 4/4/7 13/1/8 12/8/7
f 9/13/9 6/12/10 1/11/9
f 10/15/11 7/14/11 6/12/11
f 7/14/4 10/15/4 10/15/4
f 11/17/12 8/16/13 7/14/12
f 11/17/15 2/18/15 8/16/14
f 15/20/16 12/8/16 9/13/9 1/19/9
f 13/1/17 10/15/18 9/13/17
f 13/1/4 10/15/4 10/15/4
f 14/2/19 11/17/20 10/15/19
f 8/23/23 2/22/22 4/21/21
f 1/26/26 6/25/25 7/24/24
f 7/24/27 8/23/23 4/21/21
f 2/22/22 5/28/28 4/21/21
f 4/21/30 3/27/29 7/24/24
f 7/24/4 4/21/4 4/21/4
f 7/24/4 7/24/4 4/21/4
f 4/4/31 5/3/3 13/1/1
f 13/1/4 13/1/4 4/4/4
f 3/9/32 4/4/7 12/8/7
f 9/13/33 10/15/11 6/12/11
f 7/14/4 7/14/4 10/15/4
f 10/15/34 11/17/12 7/14/12
f 12/8/35 13/1/17 9/13/17
f 13/1/4 13/1/4 10/15/4
f 13/1/36 14/2/19 10/15/19
f 3/27/29 1/26/26 7/24/24
f 2/32/15 11/31/15 14/30/37 16/29/37

